#N canvas 437 23 1003 830 10;
#X msg 73 5 next;
#X msg 109 6 reset;
#X msg 91 55 arms;
#X msg 1 18 s, f 1;
#X msg 17 18 a, f 1;
#X msg 33 18 t, f 1;
#X msg 49 18 b, f 1;
#X symbolatom 44 58 3 0 0 0 - - -;
#X obj 576 775 mtof;
#X obj 671 858 t b f;
#X obj 719 1461 *~;
#X obj 719 1519 dac~;
#X obj 279 749 sel -1;
#X obj 391 295 f;
#X obj 159 295 loadbang;
#X msg 145 427 48;
#X floatatom 392 823 5 0 0 0 - - -;
#X obj 1091 981 random 1;
#X obj 1147 1085 + 0;
#X obj 949 209 f;
#X obj 997 211 + 1;
#X floatatom 1233 747 5 0 0 0 - - -;
#X obj 297 295 t b b b;
#X obj 1233 919 pow;
#X obj 1233 803 t b f;
#X msg 1233 861 2;
#X floatatom 1233 977 5 0 0 0 - - -;
#X floatatom 1147 1201 5 0 0 0 - - -;
#X msg 949 151 0;
#X floatatom 1065 1085 5 0 0 0 - - -;
#X obj 1233 1033 t f b f f;
#X obj 1233 1091 - 1;
#X obj 663 1345 line~;
#X msg 661 1221 0.7 25;
#X obj 663 1403 *~;
#X msg 555 1297 0 1500;
#X obj 555 1239 del 25;
#X obj 547 407 r list;
#X obj 1147 1143 pow 0.5;
#X obj 1125 503 +;
#X floatatom 1125 561 5 0 0 0 - - -;
#X obj 997 269 t f b f;
#X obj 1125 445 * 200;
#X obj 1229 445 random 200;
#X msg 1643 981 bang;
#X msg 1411 981 line 0;
#X obj 1599 1143 print done;
#X msg 1741 981 auto;
#X msg 1837 981 stop;
#X msg 1547 981 step;
#X obj 1411 1165 s list;
#X obj 1367 1253 print list;
#X obj 1411 1085 text sequence bass -w 1, f 17;
#X obj 1531 1253 print wait;
#X obj 575 209 t b b;
#X obj 441 408 random 5;
#X obj 891 1149 * 2;
#X obj 891 1207 osc~;
#X obj 891 1265 *~ 0.1;
#X obj 891 1381 osc~;
#X obj 891 1323 * 3;
#X obj 1109 1419 osc~;
#X obj 1109 1361 * 4;
#X obj 887 1419 *~ 0.03;
#X obj 1109 1477 *~ 0.01;
#X obj 1151 1583 osc~;
#X obj 1151 1525 * 5;
#X obj 1069 1576 *~ 0.003;
#X msg 1803 733 symbol tenor;
#X msg 1803 791 symbol alto;
#X msg 1805 927 60;
#X obj 615 299 f;
#X msg 1829 839 symbol sop;
#X obj 334 57 r next;
#X obj 753 1105 osc~ 440;
#X msg 575 151 bang;
#X msg 262 258 bang;
#X obj 122 51 inlet;
#X msg 185 144 bang;
#X obj 185 207 * 1000;
#X obj 185 228 del;
#X obj 398 54 r reset;
#X obj 1605 393 sel s a t b;
#X obj 185 165 random 1;
#X obj 185 187 + 0;
#X msg 534 516 48 50 52 54 -1;
#X obj 542 460 loadbang;
#X obj 827 737 array;
#X obj 531 551 array set alpha;
#X obj 542 481 t b b;
#X obj 395 648 array get alpha;
#X msg 455 539 1;
#N canvas 0 22 450 278 (subpatch) 0;
#X array alpha 5 float 3;
#A 0 48 50 52 54 -1;
#X coords 0 1 5 -1 200 140 1;
#X restore 681 584 graph;
#X obj 572 724 r input;
#X connect 8 0 9 0;
#X connect 9 0 33 0;
#X connect 9 0 36 0;
#X connect 9 1 56 0;
#X connect 9 1 60 0;
#X connect 9 1 62 0;
#X connect 9 1 66 0;
#X connect 9 1 74 0;
#X connect 10 0 11 0;
#X connect 10 0 11 1;
#X connect 12 0 55 0;
#X connect 12 1 16 0;
#X connect 14 0 15 0;
#X connect 15 0 13 1;
#X connect 15 0 71 1;
#X connect 16 0 8 0;
#X connect 17 0 18 0;
#X connect 17 0 29 0;
#X connect 18 0 38 0;
#X connect 19 0 20 0;
#X connect 19 0 41 0;
#X connect 20 0 19 1;
#X connect 21 0 24 0;
#X connect 22 0 55 0;
#X connect 22 1 13 0;
#X connect 22 2 19 0;
#X connect 23 0 26 0;
#X connect 24 0 25 0;
#X connect 24 1 23 1;
#X connect 25 0 23 0;
#X connect 26 0 30 0;
#X connect 28 0 19 1;
#X connect 30 1 17 0;
#X connect 30 2 17 1;
#X connect 30 3 31 0;
#X connect 31 0 18 1;
#X connect 32 0 34 0;
#X connect 32 0 34 1;
#X connect 33 0 32 0;
#X connect 34 0 10 1;
#X connect 35 0 32 0;
#X connect 36 0 35 0;
#X connect 38 0 27 0;
#X connect 39 0 40 0;
#X connect 41 0 42 0;
#X connect 41 1 43 0;
#X connect 42 0 39 0;
#X connect 43 0 39 1;
#X connect 44 0 52 0;
#X connect 45 0 52 0;
#X connect 47 0 52 0;
#X connect 48 0 52 0;
#X connect 49 0 52 0;
#X connect 52 0 50 0;
#X connect 52 0 51 0;
#X connect 52 1 53 0;
#X connect 52 2 46 0;
#X connect 54 0 47 0;
#X connect 54 0 76 0;
#X connect 54 1 45 0;
#X connect 54 1 28 0;
#X connect 54 1 71 0;
#X connect 55 0 90 0;
#X connect 56 0 57 0;
#X connect 57 0 58 0;
#X connect 58 0 10 0;
#X connect 59 0 63 0;
#X connect 60 0 59 0;
#X connect 61 0 64 0;
#X connect 62 0 61 0;
#X connect 63 0 10 0;
#X connect 64 0 10 0;
#X connect 65 0 67 0;
#X connect 66 0 65 0;
#X connect 67 0 10 0;
#X connect 68 0 52 1;
#X connect 69 0 52 1;
#X connect 69 0 70 0;
#X connect 70 0 13 1;
#X connect 70 0 71 1;
#X connect 71 0 13 1;
#X connect 72 0 52 1;
#X connect 72 0 70 0;
#X connect 73 0 78 0;
#X connect 74 0 10 0;
#X connect 75 0 54 0;
#X connect 76 0 22 0;
#X connect 78 0 83 0;
#X connect 79 0 80 0;
#X connect 80 0 76 0;
#X connect 81 0 75 0;
#X connect 82 0 72 0;
#X connect 82 1 69 0;
#X connect 82 2 68 0;
#X connect 83 0 84 0;
#X connect 84 0 79 0;
#X connect 85 0 88 0;
#X connect 86 0 89 0;
#X connect 89 0 85 0;
#X connect 89 1 91 0;
#X connect 90 0 12 0;
#X connect 91 0 90 1;
#X connect 93 0 8 0;
