#N canvas 827 596 854 855 10;
#X obj 153 328 mtof;
#X obj 113 378 t b f;
#X obj 214 510 *~;
#X obj 188 612 dac~;
#X obj 130 457 line~;
#X msg 154 426 0.7 25;
#X msg 35 425 0 1500;
#X obj 35 401 del 25;
#X obj 228 428 osc~ 0;
#X obj 145 182 + 40;
#X obj 146 141 f;
#X obj 175 142 + 1;
#X obj 145 203 t f f;
#X obj 135 109 metro 1600;
#X obj 83 68 tgl 15 0 empty empty empty 17 7 0 10 -262144 -1 -1 0 1
;
#X msg 315 448 bang;
#X msg 402 480 start;
#X msg 404 506 stop;
#X obj 315 479 del 1550;
#X obj 314 304 t b f;
#X msg 385 446 open \$1.wav;
#X obj 132 500 *~;
#X msg 221 71 0;
#X floatatom 178 261 5 0 0 0 - - -;
#X obj 369 590 writesf~;
#X connect 0 0 1 0;
#X connect 1 0 5 0;
#X connect 1 0 7 0;
#X connect 1 1 8 0;
#X connect 2 0 3 0;
#X connect 2 0 3 1;
#X connect 2 0 24 0;
#X connect 4 0 21 0;
#X connect 4 0 21 1;
#X connect 5 0 4 0;
#X connect 6 0 4 0;
#X connect 7 0 6 0;
#X connect 8 0 2 0;
#X connect 9 0 12 0;
#X connect 10 0 11 0;
#X connect 10 0 9 0;
#X connect 11 0 10 1;
#X connect 12 0 0 0;
#X connect 12 0 23 0;
#X connect 12 1 19 0;
#X connect 13 0 10 0;
#X connect 14 0 13 0;
#X connect 15 0 16 0;
#X connect 15 0 18 0;
#X connect 16 0 24 0;
#X connect 17 0 24 0;
#X connect 18 0 17 0;
#X connect 19 0 15 0;
#X connect 19 1 20 0;
#X connect 20 0 24 0;
#X connect 21 0 2 1;
#X connect 22 0 10 1;
