#N canvas 437 23 808 394 10;
#X msg 73 5 next;
#X msg 109 6 reset;
#X msg 91 55 arms;
#X msg 1 18 s, f 1;
#X msg 17 18 a, f 1;
#X msg 33 18 t, f 1;
#X msg 49 18 b, f 1;
#X symbolatom 44 58 3 0 0 0 - - -;
#N canvas 162 47 1228 855 (subpatch) 1;
#X obj 568 994 mtof;
#X obj 578 747 t b f;
#X obj 626 1350 *~;
#X obj 626 1408 dac~;
#X obj 212 512 48;
#X obj 212 570 50;
#X obj 186 638 sel -1;
#X obj 272 512 52;
#X obj 328 512 -1;
#X obj 298 184 f;
#X obj 66 184 loadbang;
#X msg 52 316 48;
#X floatatom 238 1082 5 0 0 0 - - -;
#X obj 272 570 54;
#X obj 998 870 random 1;
#X obj 1054 974 + 0;
#X obj 856 98 f;
#X obj 904 100 + 1;
#X floatatom 1140 636 5 0 0 0 - - -;
#X obj 204 184 t b b b;
#X obj 1140 808 pow;
#X obj 1140 692 t b f;
#X msg 1140 750 2;
#X floatatom 1140 866 5 0 0 0 - - -;
#X floatatom 1054 1090 5 0 0 0 - - -;
#X msg 856 40 0;
#X floatatom 972 974 5 0 0 0 - - -;
#X obj 1140 922 t f b f f;
#X obj 1140 980 - 1;
#X obj 570 1234 line~;
#X msg 568 1110 0.7 25;
#X obj 570 1292 *~;
#X msg 462 1186 0 1500;
#X obj 462 1128 del 25;
#X obj 228 1416 print;
#X obj 1318 280 text define xx;
#X obj 226 1300 text get xx;
#X obj 454 296 r list;
#X obj 1054 1032 pow 0.5;
#X obj 1032 392 +;
#X floatatom 1032 450 5 0 0 0 - - -;
#X obj 904 158 t f b f;
#X obj 1032 334 * 200;
#X obj 1136 334 random 200;
#X obj 1818 150 s list;
#X msg 1818 92 56 58 60 62 63 65;
#X msg 1318 222 read all.num;
#X msg 1550 870 bang;
#X msg 1318 870 line 0;
#X obj 1506 1032 print done;
#X msg 1648 870 auto;
#X msg 1744 870 stop;
#X msg 1454 870 step;
#X obj 444 426 unpack f f f f f;
#X obj 218 362 sel 0 1 2 3 4;
#X obj 1318 1054 s list;
#X obj 1902 660 text define -k bass;
#A set 0 48 -1 -1 -1 -1 \; 12000 47 48 -1 -1 -1 \; 12000 45 47 48 -1
-1 \; 12000 43 45 47 48 -1 \; 12000 43 45 47 48 50 \; 12000 45 47 48
50 -1 \; 12000 45 48 50 53 -1 \; 12000 48 50 52 53 -1 \; 12000 50 52
53 -1 -1 \; 12000 52 53 -1 -1 -1 \; 12000 53 -1 -1 -1 -1 \; 12000 52
53 55 -1 -1 \; 12000 52 53 55 -1 -1 \;;
#X obj 1274 1142 print list;
#X obj 1318 974 text sequence bass -w 1, f 17;
#X obj 1438 1142 print wait;
#X obj 482 98 t b b;
#X obj 454 238 random 5;
#X msg 1902 602 read bass.txt;
#X obj 798 1038 * 2;
#X obj 798 1096 osc~;
#X obj 798 1154 *~ 0.1;
#X obj 798 1270 osc~;
#X obj 798 1212 * 3;
#X obj 1016 1308 osc~;
#X obj 1016 1250 * 4;
#X obj 822 1260 *~ 0.03;
#X obj 1016 1366 *~ 0.01;
#X obj 1058 1472 osc~;
#X obj 1058 1414 * 5;
#X obj 1058 1472 *~ 0.003;
#X obj 1864 508 text define -k tenor;
#A set 0 48 -1 -1 -1 -1 \; 12000 48 50 -1 -1 -1 \; 12000 48 50 52 -1
-1 \; 12000 48 50 52 54 -1 \; 12000 50 52 54 57 -1 \; 12000 50 52 55
57 -1 \; 12000 52 53 55 59 -1 \; 12000 53 55 57 59 -1 \; 12000 57 59
60 -1 -1 \; 12000 59 60 -1 -1 -1 \; 12000 60 -1 -1 -1 -1 \; 12000 58
60 -1 -1 -1 \; 12000 57 58 60 -1 -1 \;;
#X msg 1858 464 read tenor.txt;
#X msg 1710 622 symbol tenor;
#X msg 1886 356 read alto.txt;
#X obj 1882 404 text define -k alto;
#A set 0 60 -1 -1 -1 -1 \; 12000 59 60 -1 -1 -1 \; 12000 57 59 60 -1
-1 \; 12000 67 57 59 60 -1 \; 12000 67 57 59 60 62 \; 12000 57 59 60
62 -1 \; 12000 57 60 62 65 -1 \; 12000 60 62 64 65 -1 \; 12000 62 64
65 -1 -1 \; 12000 62 64 -1 -1 -1 \; 12000 62 64 -1 -1 -1 \; 12000 62
64 -1 -1 -1 \; 12000 62 64 65 -1 -1 \;;
#X msg 1710 680 symbol alto;
#X msg 1712 816 60;
#X obj 522 188 f;
#X msg 1736 728 symbol sop;
#X msg 1866 236 read sop.txt;
#X obj 1866 294 text define -k sop;
#A set 0 60 -1 -1 -1 -1 \; 12000 60 62 -1 -1 -1 \; 12000 60 62 64 -1
-1 \; 12000 60 62 64 66 -1 \; 12000 62 64 66 69 -1 \; 12000 62 64 67
69 -1 \; 12000 64 65 67 71 -1 \; 12000 65 67 69 71 -1 \; 12000 67 69
71 -1 -1 \; 12000 67 69 -1 -1 -1 \; 12000 67 69 -1 -1 -1 \; 12000 67
69 -1 -1 -1 \; 12000 67 69 70 -1 -1 \;;
#X obj 241 -54 r next;
#X msg 1850 1142 0 48 -1 -1 -1 -1 \; 12000 47 48 -1 -1 -1 \; 12000
45 47 48 -1 -1 \; 12000 43 45 47 48 -1 \; 12000 43 45 47 48 50 \; 12000
45 47 48 50 -1 \; 12000 45 48 50 53 -1 \; 12000 48 50 52 53 -1 \; 12000
50 52 53 -1 -1 \; 12000 52 53 -1 -1 -1 \; 12000 53 -1 -1 -1 -1 \; 12000
52 53 55 -1 -1 \; 12000 52 53 55 -1 -1 \;;
#X obj 1850 1464 print;
#X obj 660 994 osc~ 440;
#X msg 482 40 bang;
#X msg 169 147 bang;
#X msg 512 568 bang;
#X obj 128 1409 outlet;
#X obj 29 -60 inlet;
#X msg 92 33 bang;
#X obj 92 54 random 6;
#X obj 92 75 + 2;
#X obj 92 96 * 1000;
#X obj 100 125 del;
#X obj 37 556 metro 1000;
#X obj 67 577 - 1;
#X obj 62 485 t b f;
#X msg 53 515 1;
#X obj 23 693 sel 1;
#X msg 2 636 0;
#X obj 37 578 i;
#X msg 272 1379;
#X msg 168 1365 set \$1;
#X msg 103 709 set \$1;
#X obj 1797 196 loadbang;
#X obj 191 16 tgl 15 0 empty empty empty 17 7 0 10 -262144 -1 -1 1
1;
#X msg 16 1093 pp;
#X msg 30 1124 p;
#X msg 48 1148 mp;
#X msg 52 1184 mf;
#X msg 64 1225 f;
#X msg 69 1253 ff;
#X obj 34 1293 symbol;
#X obj 34 1314 outlet;
#X obj 305 -57 r reset;
#X msg 527 681 400;
#X obj 1512 282 sel s a t b;
#X connect 0 0 1 0;
#X connect 1 0 30 0;
#X connect 1 0 33 0;
#X connect 1 1 63 0;
#X connect 1 1 67 0;
#X connect 1 1 69 0;
#X connect 1 1 73 0;
#X connect 1 1 89 0;
#X connect 2 0 3 0;
#X connect 2 0 3 1;
#X connect 4 0 6 0;
#X connect 5 0 6 0;
#X connect 6 0 61 0;
#X connect 6 1 12 0;
#X connect 7 0 6 0;
#X connect 8 0 6 0;
#X connect 10 0 11 0;
#X connect 11 0 9 1;
#X connect 11 0 82 1;
#X connect 12 0 0 0;
#X connect 13 0 6 0;
#X connect 14 0 15 0;
#X connect 14 0 26 0;
#X connect 15 0 38 0;
#X connect 16 0 17 0;
#X connect 16 0 41 0;
#X connect 17 0 16 1;
#X connect 18 0 21 0;
#X connect 19 0 61 0;
#X connect 19 1 9 0;
#X connect 19 2 16 0;
#X connect 20 0 23 0;
#X connect 21 0 22 0;
#X connect 21 1 20 1;
#X connect 22 0 20 0;
#X connect 23 0 27 0;
#X connect 25 0 16 1;
#X connect 27 1 14 0;
#X connect 27 2 14 1;
#X connect 27 3 28 0;
#X connect 28 0 15 1;
#X connect 29 0 31 0;
#X connect 29 0 31 1;
#X connect 30 0 29 0;
#X connect 31 0 2 1;
#X connect 32 0 29 0;
#X connect 33 0 32 0;
#X connect 36 0 34 0;
#X connect 36 0 108 0;
#X connect 38 0 24 0;
#X connect 39 0 40 0;
#X connect 39 0 36 0;
#X connect 41 0 42 0;
#X connect 41 1 43 0;
#X connect 42 0 39 0;
#X connect 43 0 39 1;
#X connect 45 0 44 0;
#X connect 46 0 35 0;
#X connect 47 0 58 0;
#X connect 48 0 58 0;
#X connect 50 0 58 0;
#X connect 51 0 58 0;
#X connect 52 0 58 0;
#X connect 53 0 4 1;
#X connect 53 1 5 1;
#X connect 53 2 7 1;
#X connect 53 3 13 1;
#X connect 53 4 8 1;
#X connect 54 0 4 0;
#X connect 54 1 5 0;
#X connect 54 2 7 0;
#X connect 54 3 13 0;
#X connect 54 4 8 0;
#X connect 58 0 55 0;
#X connect 58 0 57 0;
#X connect 58 1 59 0;
#X connect 58 2 49 0;
#X connect 60 0 50 0;
#X connect 60 0 91 0;
#X connect 60 1 48 0;
#X connect 60 1 25 0;
#X connect 60 1 46 0;
#X connect 60 1 76 0;
#X connect 60 1 82 0;
#X connect 61 0 54 0;
#X connect 62 0 56 0;
#X connect 63 0 64 0;
#X connect 64 0 65 0;
#X connect 65 0 2 0;
#X connect 66 0 70 0;
#X connect 67 0 66 0;
#X connect 68 0 71 0;
#X connect 69 0 68 0;
#X connect 70 0 2 0;
#X connect 71 0 2 0;
#X connect 72 0 74 0;
#X connect 73 0 72 0;
#X connect 74 0 2 0;
#X connect 76 0 75 0;
#X connect 77 0 58 1;
#X connect 78 0 79 0;
#X connect 80 0 58 1;
#X connect 80 0 81 0;
#X connect 81 0 9 1;
#X connect 81 0 82 1;
#X connect 82 0 9 1;
#X connect 83 0 58 1;
#X connect 83 0 81 0;
#X connect 84 0 85 0;
#X connect 86 0 95 0;
#X connect 87 0 88 0;
#X connect 89 0 2 0;
#X connect 90 0 60 0;
#X connect 91 0 19 0;
#X connect 92 0 61 0;
#X connect 95 0 96 0;
#X connect 96 0 97 0;
#X connect 97 0 98 0;
#X connect 97 0 102 0;
#X connect 98 0 99 0;
#X connect 99 0 91 0;
#X connect 100 0 106 0;
#X connect 101 0 106 1;
#X connect 102 0 103 0;
#X connect 102 1 106 1;
#X connect 103 0 100 0;
#X connect 104 0 105 0;
#X connect 105 0 100 0;
#X connect 106 0 101 0;
#X connect 106 0 109 0;
#X connect 106 0 104 0;
#X connect 108 0 93 0;
#X connect 109 0 93 0;
#X connect 110 0 84 0;
#X connect 110 0 78 0;
#X connect 110 0 76 0;
#X connect 110 0 62 0;
#X connect 112 0 118 0;
#X connect 113 0 118 0;
#X connect 114 0 118 0;
#X connect 115 0 118 0;
#X connect 116 0 118 0;
#X connect 117 0 118 0;
#X connect 118 0 119 0;
#X connect 120 0 90 0;
#X connect 121 0 1 0;
#X connect 122 0 83 0;
#X connect 122 1 80 0;
#X connect 122 2 77 0;
#X restore 73 32 pd;
#X connect 0 0 8 0;
#X connect 1 0 8 0;
#X connect 3 0 8 0;
#X connect 4 0 8 0;
#X connect 5 0 8 0;
#X connect 6 0 8 0;
#X connect 8 0 7 0;
#X connect 8 1 2 0;
